<svg width="25" height="36" viewBox="0 0 25 38" fill="none" xmlns="http://www.w3.org/2000/svg">
<path fill-rule="evenodd" clip-rule="evenodd" d="M2.00256 9.20597C2.38121 14.3308 2.75573 19.4614 3.13026 24.5922L3.13049 24.5953C3.33384 27.3811 3.5372 30.167 3.74122 32.9519H4.51481C4.56752 33.3878 4.62784 33.926 4.69143 34.4934C4.82052 35.6452 4.96313 36.9177 5.08303 37.6996H5.16859C5.95655 37.4113 11.4039 35.0829 11.4063 25.8131C11.4053 25.7867 11.4062 25.7603 11.4089 25.734H10.0631C9.99797 25.7334 9.93482 25.7116 9.88339 25.6721C9.83196 25.6326 9.79509 25.5774 9.77846 25.5151C9.64731 25.1912 9.54157 24.8577 9.46217 24.5177C8.67046 24.9649 8.04175 25.6477 7.66565 26.4688C7.30863 25.6278 7.2619 24.6896 7.53362 23.818C7.80535 22.9464 8.37825 22.197 9.15221 21.7006C9.16218 18.9956 10.175 16.3881 11.9988 14.3717L12.0273 14.3466C12.0803 14.3008 12.1482 14.2753 12.2185 14.2747C12.2593 14.2751 12.2995 14.2838 12.3366 14.3003C12.3742 14.317 12.4078 14.3413 12.4353 14.3717C14.2805 16.3909 15.2879 19.0234 15.2566 21.7444C16.045 22.2269 16.6296 22.9758 16.9018 23.8521C17.174 24.7284 17.1154 25.6726 16.7368 26.5094C16.3628 25.687 15.7335 25.0036 14.9403 24.5584C14.8919 24.8879 14.8026 25.2103 14.6746 25.5183C14.6304 25.6496 14.5418 25.734 14.4532 25.734H13.018C13.0203 25.7497 13.0219 25.7655 13.0228 25.7814L13.0234 25.785V25.7927C13.0239 25.8063 13.0239 25.82 13.0234 25.8337C13.043 35.3696 18.8347 37.5341 19.3229 37.6996H19.4899C19.5325 36.9485 19.6713 35.9121 19.8066 34.9018C19.8998 34.2055 19.9914 33.5215 20.0487 32.9519H20.8312C21.0817 29.444 21.3393 25.9459 21.5969 22.4477L21.5971 22.4458L21.5971 22.4448C21.9267 17.9702 22.2562 13.4955 22.5708 9H2.05267C1.99361 9.01154 1.99764 9.10815 2.00256 9.20597ZM12.2185 14.2747L12.2171 14.2747H12.2202L12.2185 14.2747Z" fill="#8047F8"/>
<path d="M24.2175 4.10238C23.8932 3.60574 23.4194 3.59149 22.8795 3.57524C22.8183 3.5734 22.7563 3.57152 22.6936 3.56892C22.6458 3.56672 22.5931 3.56758 22.538 3.56846C22.319 3.57198 22.0629 3.57609 21.9339 3.39212C21.7843 3.17883 21.7985 2.76663 21.8102 2.42634C21.8139 2.31882 21.8173 2.2184 21.8153 2.13379C21.7943 1.34331 21.7504 0.503621 21.4453 0.222913C21.2152 0.012303 20.5268 0.0414792 19.892 0.0683876C19.6862 0.0771106 19.486 0.0855995 19.3089 0.0855995H5.79596C5.52389 0.0855995 5.23869 0.0634522 4.95847 0.0416847C4.41245 -0.00073044 3.88533 -0.0416847 3.511 0.0855995C2.96775 0.271228 2.93096 1.24667 2.89633 2.16519L2.89446 2.2146C2.86538 2.97287 2.67746 3.55799 2.05465 3.49905C1.33029 3.43161 0.609497 3.41034 0.281987 4.06593C-0.10481 4.84161 -0.0250374 5.65357 0.117847 7.10792C0.138258 7.31567 0.159956 7.53652 0.181766 7.77224H12.3041H24.4264C24.4403 7.59995 24.455 7.42986 24.4696 7.26253C24.5831 5.95406 24.682 4.81401 24.2175 4.10238Z" fill="#8047F8"/>
</svg>
